<mxfile host="Electron" modified="2023-09-22T15:24:30.233Z" agent="Mozilla/5.0 (Windows NT 10.0; Win64; x64) AppleWebKit/537.36 (KHTML, like Gecko) draw.io/21.6.8 Chrome/114.0.5735.289 Electron/25.5.0 Safari/537.36" etag="T2PA6VKlzPKZuwGupDGu" version="21.6.8" type="device">
  <diagram name="Page-1" id="apIsHBKg_S5iA1-cCs7I">
    <mxGraphModel dx="1886" dy="623" grid="1" gridSize="10" guides="1" tooltips="1" connect="1" arrows="1" fold="1" page="1" pageScale="1" pageWidth="850" pageHeight="1100" math="0" shadow="0">
      <root>
        <mxCell id="0" />
        <mxCell id="1" parent="0" />
        <mxCell id="xp9DndtR4B1kEyA0Q4Bi-1" value="User" style="swimlane;fontStyle=1;align=center;verticalAlign=top;childLayout=stackLayout;horizontal=1;startSize=26;horizontalStack=0;resizeParent=1;resizeParentMax=0;resizeLast=0;collapsible=1;marginBottom=0;whiteSpace=wrap;html=1;" parent="1" vertex="1">
          <mxGeometry x="330" y="80" width="160" height="158" as="geometry" />
        </mxCell>
        <mxCell id="xp9DndtR4B1kEyA0Q4Bi-2" value="&lt;font style=&quot;font-size: 14px;&quot;&gt;-email: string&lt;br&gt;-password: string&lt;br&gt;-role : boolean&lt;br&gt;-loginstatus: string&lt;br&gt;-registerDate: date&lt;/font&gt;" style="text;strokeColor=none;fillColor=none;align=left;verticalAlign=top;spacingLeft=4;spacingRight=4;overflow=hidden;rotatable=0;points=[[0,0.5],[1,0.5]];portConstraint=eastwest;whiteSpace=wrap;html=1;" parent="xp9DndtR4B1kEyA0Q4Bi-1" vertex="1">
          <mxGeometry y="26" width="160" height="94" as="geometry" />
        </mxCell>
        <mxCell id="xp9DndtR4B1kEyA0Q4Bi-3" value="" style="line;strokeWidth=1;fillColor=none;align=left;verticalAlign=middle;spacingTop=-1;spacingLeft=3;spacingRight=3;rotatable=0;labelPosition=right;points=[];portConstraint=eastwest;strokeColor=inherit;" parent="xp9DndtR4B1kEyA0Q4Bi-1" vertex="1">
          <mxGeometry y="120" width="160" height="8" as="geometry" />
        </mxCell>
        <mxCell id="xp9DndtR4B1kEyA0Q4Bi-4" value="&lt;font style=&quot;font-size: 14px;&quot;&gt;+ verifyLogin(): bool&amp;nbsp;&lt;/font&gt;" style="text;strokeColor=none;fillColor=none;align=left;verticalAlign=top;spacingLeft=4;spacingRight=4;overflow=hidden;rotatable=0;points=[[0,0.5],[1,0.5]];portConstraint=eastwest;whiteSpace=wrap;html=1;" parent="xp9DndtR4B1kEyA0Q4Bi-1" vertex="1">
          <mxGeometry y="128" width="160" height="30" as="geometry" />
        </mxCell>
        <mxCell id="xp9DndtR4B1kEyA0Q4Bi-5" value="Coustomer" style="swimlane;fontStyle=1;align=center;verticalAlign=top;childLayout=stackLayout;horizontal=1;startSize=26;horizontalStack=0;resizeParent=1;resizeParentMax=0;resizeLast=0;collapsible=1;marginBottom=0;whiteSpace=wrap;html=1;" parent="1" vertex="1">
          <mxGeometry x="40" y="280" width="170" height="200" as="geometry" />
        </mxCell>
        <mxCell id="xp9DndtR4B1kEyA0Q4Bi-6" value="&lt;span style=&quot;font-size: 14px;&quot;&gt;-coustomer_name: string&lt;br&gt;-email: string&lt;br&gt;-phone_number: int&lt;br&gt;-image: string&lt;br&gt;-address: string&lt;br&gt;&lt;/span&gt;" style="text;strokeColor=none;fillColor=none;align=left;verticalAlign=top;spacingLeft=4;spacingRight=4;overflow=hidden;rotatable=0;points=[[0,0.5],[1,0.5]];portConstraint=eastwest;whiteSpace=wrap;html=1;" parent="xp9DndtR4B1kEyA0Q4Bi-5" vertex="1">
          <mxGeometry y="26" width="170" height="104" as="geometry" />
        </mxCell>
        <mxCell id="xp9DndtR4B1kEyA0Q4Bi-7" value="" style="line;strokeWidth=1;fillColor=none;align=left;verticalAlign=middle;spacingTop=-1;spacingLeft=3;spacingRight=3;rotatable=0;labelPosition=right;points=[];portConstraint=eastwest;strokeColor=inherit;" parent="xp9DndtR4B1kEyA0Q4Bi-5" vertex="1">
          <mxGeometry y="130" width="170" height="8" as="geometry" />
        </mxCell>
        <mxCell id="xp9DndtR4B1kEyA0Q4Bi-8" value="&lt;font style=&quot;font-size: 14px;&quot;&gt;+ register()&lt;br&gt;+ login()&lt;br&gt;+ updateProfile()&lt;br&gt;&lt;/font&gt;" style="text;strokeColor=none;fillColor=none;align=left;verticalAlign=top;spacingLeft=4;spacingRight=4;overflow=hidden;rotatable=0;points=[[0,0.5],[1,0.5]];portConstraint=eastwest;whiteSpace=wrap;html=1;" parent="xp9DndtR4B1kEyA0Q4Bi-5" vertex="1">
          <mxGeometry y="138" width="170" height="62" as="geometry" />
        </mxCell>
        <mxCell id="xp9DndtR4B1kEyA0Q4Bi-9" value="Vendor" style="swimlane;fontStyle=1;align=center;verticalAlign=top;childLayout=stackLayout;horizontal=1;startSize=26;horizontalStack=0;resizeParent=1;resizeParentMax=0;resizeLast=0;collapsible=1;marginBottom=0;whiteSpace=wrap;html=1;" parent="1" vertex="1">
          <mxGeometry x="596" y="276" width="170" height="198" as="geometry" />
        </mxCell>
        <mxCell id="xp9DndtR4B1kEyA0Q4Bi-10" value="&lt;font style=&quot;font-size: 14px;&quot;&gt;-vendor_name: string&lt;br style=&quot;border-color: var(--border-color);&quot;&gt;&lt;span style=&quot;&quot;&gt;-email: string&lt;/span&gt;&lt;br style=&quot;border-color: var(--border-color);&quot;&gt;&lt;span style=&quot;&quot;&gt;-phone_number: int&lt;/span&gt;&lt;br style=&quot;border-color: var(--border-color);&quot;&gt;&lt;span style=&quot;&quot;&gt;-image: string&lt;/span&gt;&lt;br style=&quot;border-color: var(--border-color);&quot;&gt;&lt;span style=&quot;&quot;&gt;-address: string&lt;/span&gt;&lt;/font&gt;" style="text;strokeColor=none;fillColor=none;align=left;verticalAlign=top;spacingLeft=4;spacingRight=4;overflow=hidden;rotatable=0;points=[[0,0.5],[1,0.5]];portConstraint=eastwest;whiteSpace=wrap;html=1;" parent="xp9DndtR4B1kEyA0Q4Bi-9" vertex="1">
          <mxGeometry y="26" width="170" height="94" as="geometry" />
        </mxCell>
        <mxCell id="xp9DndtR4B1kEyA0Q4Bi-11" value="" style="line;strokeWidth=1;fillColor=none;align=left;verticalAlign=middle;spacingTop=-1;spacingLeft=3;spacingRight=3;rotatable=0;labelPosition=right;points=[];portConstraint=eastwest;strokeColor=inherit;" parent="xp9DndtR4B1kEyA0Q4Bi-9" vertex="1">
          <mxGeometry y="120" width="170" height="8" as="geometry" />
        </mxCell>
        <mxCell id="xp9DndtR4B1kEyA0Q4Bi-12" value="&lt;font style=&quot;font-size: 14px;&quot;&gt;+ register()&lt;br style=&quot;border-color: var(--border-color);&quot;&gt;+ login()&lt;br style=&quot;border-color: var(--border-color);&quot;&gt;+ updateProfile()&lt;/font&gt;" style="text;strokeColor=none;fillColor=none;align=left;verticalAlign=top;spacingLeft=4;spacingRight=4;overflow=hidden;rotatable=0;points=[[0,0.5],[1,0.5]];portConstraint=eastwest;whiteSpace=wrap;html=1;" parent="xp9DndtR4B1kEyA0Q4Bi-9" vertex="1">
          <mxGeometry y="128" width="170" height="70" as="geometry" />
        </mxCell>
        <mxCell id="xp9DndtR4B1kEyA0Q4Bi-13" value="Admin" style="swimlane;fontStyle=1;align=center;verticalAlign=top;childLayout=stackLayout;horizontal=1;startSize=26;horizontalStack=0;resizeParent=1;resizeParentMax=0;resizeLast=0;collapsible=1;marginBottom=0;whiteSpace=wrap;html=1;" parent="1" vertex="1">
          <mxGeometry x="330" y="310" width="170" height="170" as="geometry" />
        </mxCell>
        <mxCell id="xp9DndtR4B1kEyA0Q4Bi-14" value="&lt;font style=&quot;font-size: 14px;&quot;&gt;-admin_name: string&lt;br style=&quot;border-color: var(--border-color);&quot;&gt;&lt;span style=&quot;border-color: var(--border-color);&quot;&gt;-email: string&lt;/span&gt;&lt;br style=&quot;border-color: var(--border-color);&quot;&gt;&lt;span style=&quot;border-color: var(--border-color);&quot;&gt;-phone_number: int&lt;/span&gt;&lt;br style=&quot;border-color: var(--border-color);&quot;&gt;&lt;span style=&quot;border-color: var(--border-color);&quot;&gt;-image: string&lt;/span&gt;&lt;br style=&quot;border-color: var(--border-color);&quot;&gt;&lt;span style=&quot;border-color: var(--border-color);&quot;&gt;-address: string&lt;/span&gt;&lt;/font&gt;" style="text;strokeColor=none;fillColor=none;align=left;verticalAlign=top;spacingLeft=4;spacingRight=4;overflow=hidden;rotatable=0;points=[[0,0.5],[1,0.5]];portConstraint=eastwest;whiteSpace=wrap;html=1;" parent="xp9DndtR4B1kEyA0Q4Bi-13" vertex="1">
          <mxGeometry y="26" width="170" height="94" as="geometry" />
        </mxCell>
        <mxCell id="xp9DndtR4B1kEyA0Q4Bi-15" value="" style="line;strokeWidth=1;fillColor=none;align=left;verticalAlign=middle;spacingTop=-1;spacingLeft=3;spacingRight=3;rotatable=0;labelPosition=right;points=[];portConstraint=eastwest;strokeColor=inherit;" parent="xp9DndtR4B1kEyA0Q4Bi-13" vertex="1">
          <mxGeometry y="120" width="170" height="8" as="geometry" />
        </mxCell>
        <mxCell id="xp9DndtR4B1kEyA0Q4Bi-16" value="&lt;font style=&quot;font-size: 14px;&quot;&gt;+login()&lt;br&gt;+updateProfile()&lt;br&gt;&lt;/font&gt;" style="text;strokeColor=none;fillColor=none;align=left;verticalAlign=top;spacingLeft=4;spacingRight=4;overflow=hidden;rotatable=0;points=[[0,0.5],[1,0.5]];portConstraint=eastwest;whiteSpace=wrap;html=1;" parent="xp9DndtR4B1kEyA0Q4Bi-13" vertex="1">
          <mxGeometry y="128" width="170" height="42" as="geometry" />
        </mxCell>
        <mxCell id="xp9DndtR4B1kEyA0Q4Bi-18" value="" style="endArrow=block;endSize=16;endFill=0;html=1;rounded=0;exitX=0.471;exitY=0;exitDx=0;exitDy=0;entryX=0;entryY=0.5;entryDx=0;entryDy=0;exitPerimeter=0;" parent="1" source="xp9DndtR4B1kEyA0Q4Bi-5" target="xp9DndtR4B1kEyA0Q4Bi-2" edge="1">
          <mxGeometry width="160" relative="1" as="geometry">
            <mxPoint x="90" y="190" as="sourcePoint" />
            <mxPoint x="250" y="190" as="targetPoint" />
            <Array as="points">
              <mxPoint x="120" y="150" />
            </Array>
          </mxGeometry>
        </mxCell>
        <mxCell id="xp9DndtR4B1kEyA0Q4Bi-19" value="" style="endArrow=block;endSize=16;endFill=0;html=1;rounded=0;exitX=0.5;exitY=0;exitDx=0;exitDy=0;entryX=0.513;entryY=1.029;entryDx=0;entryDy=0;entryPerimeter=0;" parent="1" source="xp9DndtR4B1kEyA0Q4Bi-13" target="xp9DndtR4B1kEyA0Q4Bi-4" edge="1">
          <mxGeometry width="160" relative="1" as="geometry">
            <mxPoint x="430" y="280" as="sourcePoint" />
            <mxPoint x="590" y="280" as="targetPoint" />
          </mxGeometry>
        </mxCell>
        <mxCell id="xp9DndtR4B1kEyA0Q4Bi-20" value="" style="endArrow=block;endSize=16;endFill=0;html=1;rounded=0;exitX=0.588;exitY=0.002;exitDx=0;exitDy=0;entryX=1;entryY=0.5;entryDx=0;entryDy=0;exitPerimeter=0;" parent="1" source="xp9DndtR4B1kEyA0Q4Bi-9" target="xp9DndtR4B1kEyA0Q4Bi-2" edge="1">
          <mxGeometry width="160" relative="1" as="geometry">
            <mxPoint x="620" y="200" as="sourcePoint" />
            <mxPoint x="780" y="200" as="targetPoint" />
            <Array as="points">
              <mxPoint x="696" y="148" />
            </Array>
          </mxGeometry>
        </mxCell>
        <mxCell id="xp9DndtR4B1kEyA0Q4Bi-21" value="&lt;span style=&quot;font-weight: normal;&quot;&gt;Shoping Cart&lt;/span&gt;" style="swimlane;fontStyle=1;align=center;verticalAlign=top;childLayout=stackLayout;horizontal=1;startSize=26;horizontalStack=0;resizeParent=1;resizeParentMax=0;resizeLast=0;collapsible=1;marginBottom=0;whiteSpace=wrap;html=1;" parent="1" vertex="1">
          <mxGeometry x="-149" y="506" width="170" height="200" as="geometry" />
        </mxCell>
        <mxCell id="xp9DndtR4B1kEyA0Q4Bi-22" value="&lt;span style=&quot;font-size: 14px;&quot;&gt;-cartId : int&lt;br&gt;-productId : int&lt;br&gt;-quantity : int&lt;br&gt;-addedDate : date&lt;br&gt;&lt;/span&gt;" style="text;strokeColor=none;fillColor=none;align=left;verticalAlign=top;spacingLeft=4;spacingRight=4;overflow=hidden;rotatable=0;points=[[0,0.5],[1,0.5]];portConstraint=eastwest;whiteSpace=wrap;html=1;" parent="xp9DndtR4B1kEyA0Q4Bi-21" vertex="1">
          <mxGeometry y="26" width="170" height="84" as="geometry" />
        </mxCell>
        <mxCell id="xp9DndtR4B1kEyA0Q4Bi-23" value="" style="line;strokeWidth=1;fillColor=none;align=left;verticalAlign=middle;spacingTop=-1;spacingLeft=3;spacingRight=3;rotatable=0;labelPosition=right;points=[];portConstraint=eastwest;strokeColor=inherit;" parent="xp9DndtR4B1kEyA0Q4Bi-21" vertex="1">
          <mxGeometry y="110" width="170" height="8" as="geometry" />
        </mxCell>
        <mxCell id="xp9DndtR4B1kEyA0Q4Bi-24" value="&lt;font style=&quot;font-size: 14px;&quot;&gt;+addCartItem()&lt;br&gt;+updateQuantity()&lt;br&gt;+viewCardDetails()&lt;br&gt;+checkOut()&lt;br&gt;&lt;/font&gt;" style="text;strokeColor=none;fillColor=none;align=left;verticalAlign=top;spacingLeft=4;spacingRight=4;overflow=hidden;rotatable=0;points=[[0,0.5],[1,0.5]];portConstraint=eastwest;whiteSpace=wrap;html=1;" parent="xp9DndtR4B1kEyA0Q4Bi-21" vertex="1">
          <mxGeometry y="118" width="170" height="82" as="geometry" />
        </mxCell>
        <mxCell id="xp9DndtR4B1kEyA0Q4Bi-26" value="" style="endArrow=diamondThin;endFill=1;endSize=24;html=1;rounded=0;exitX=0.75;exitY=0;exitDx=0;exitDy=0;entryX=0;entryY=0.5;entryDx=0;entryDy=0;" parent="1" source="xp9DndtR4B1kEyA0Q4Bi-21" target="xp9DndtR4B1kEyA0Q4Bi-6" edge="1">
          <mxGeometry width="160" relative="1" as="geometry">
            <mxPoint x="220" y="520" as="sourcePoint" />
            <mxPoint x="140" y="550" as="targetPoint" />
            <Array as="points">
              <mxPoint x="-20" y="360" />
            </Array>
          </mxGeometry>
        </mxCell>
        <mxCell id="xp9DndtR4B1kEyA0Q4Bi-27" value="&lt;font style=&quot;font-size: 14px;&quot;&gt;1&lt;/font&gt;" style="edgeLabel;html=1;align=center;verticalAlign=middle;resizable=0;points=[];" parent="xp9DndtR4B1kEyA0Q4Bi-26" vertex="1" connectable="0">
          <mxGeometry x="0.5428" y="1" relative="1" as="geometry">
            <mxPoint as="offset" />
          </mxGeometry>
        </mxCell>
        <mxCell id="xp9DndtR4B1kEyA0Q4Bi-28" value="&lt;b&gt;&lt;font style=&quot;font-size: 15px;&quot;&gt;0...*&lt;/font&gt;&lt;/b&gt;" style="edgeLabel;html=1;align=center;verticalAlign=middle;resizable=0;points=[];" parent="xp9DndtR4B1kEyA0Q4Bi-26" vertex="1" connectable="0">
          <mxGeometry x="-0.719" relative="1" as="geometry">
            <mxPoint as="offset" />
          </mxGeometry>
        </mxCell>
        <mxCell id="xp9DndtR4B1kEyA0Q4Bi-29" value="&lt;span style=&quot;font-weight: normal;&quot;&gt;Order&amp;nbsp;&lt;/span&gt;" style="swimlane;fontStyle=1;align=center;verticalAlign=top;childLayout=stackLayout;horizontal=1;startSize=26;horizontalStack=0;resizeParent=1;resizeParentMax=0;resizeLast=0;collapsible=1;marginBottom=0;whiteSpace=wrap;html=1;" parent="1" vertex="1">
          <mxGeometry x="21" y="750" width="170" height="180" as="geometry" />
        </mxCell>
        <mxCell id="xp9DndtR4B1kEyA0Q4Bi-30" value="&lt;span style=&quot;font-size: 14px;&quot;&gt;-orderId: int&lt;br&gt;-coustomerId: string&lt;br&gt;-coustomer_name: string&lt;br&gt;-orderDate : date&lt;br&gt;-deleviryDate: date&lt;br&gt;-deleviryStatus: boolean&lt;br&gt;-shipingId : string&lt;br&gt;&lt;/span&gt;" style="text;strokeColor=none;fillColor=none;align=left;verticalAlign=top;spacingLeft=4;spacingRight=4;overflow=hidden;rotatable=0;points=[[0,0.5],[1,0.5]];portConstraint=eastwest;whiteSpace=wrap;html=1;" parent="xp9DndtR4B1kEyA0Q4Bi-29" vertex="1">
          <mxGeometry y="26" width="170" height="104" as="geometry" />
        </mxCell>
        <mxCell id="xp9DndtR4B1kEyA0Q4Bi-31" value="" style="line;strokeWidth=1;fillColor=none;align=left;verticalAlign=middle;spacingTop=-1;spacingLeft=3;spacingRight=3;rotatable=0;labelPosition=right;points=[];portConstraint=eastwest;strokeColor=inherit;" parent="xp9DndtR4B1kEyA0Q4Bi-29" vertex="1">
          <mxGeometry y="130" width="170" height="8" as="geometry" />
        </mxCell>
        <mxCell id="xp9DndtR4B1kEyA0Q4Bi-32" value="&lt;font style=&quot;font-size: 14px;&quot;&gt;+placeOrder()&lt;br&gt;&lt;/font&gt;" style="text;strokeColor=none;fillColor=none;align=left;verticalAlign=top;spacingLeft=4;spacingRight=4;overflow=hidden;rotatable=0;points=[[0,0.5],[1,0.5]];portConstraint=eastwest;whiteSpace=wrap;html=1;" parent="xp9DndtR4B1kEyA0Q4Bi-29" vertex="1">
          <mxGeometry y="138" width="170" height="42" as="geometry" />
        </mxCell>
        <mxCell id="xp9DndtR4B1kEyA0Q4Bi-39" value="&lt;span style=&quot;font-weight: normal;&quot;&gt;Product&lt;/span&gt;" style="swimlane;fontStyle=1;align=center;verticalAlign=top;childLayout=stackLayout;horizontal=1;startSize=26;horizontalStack=0;resizeParent=1;resizeParentMax=0;resizeLast=0;collapsible=1;marginBottom=0;whiteSpace=wrap;html=1;" parent="1" vertex="1">
          <mxGeometry x="210" y="522" width="180" height="240" as="geometry" />
        </mxCell>
        <mxCell id="xp9DndtR4B1kEyA0Q4Bi-40" value="&lt;span style=&quot;font-size: 14px;&quot;&gt;-productName : string&lt;br&gt;-productImage : string&lt;br&gt;-productDescription : string&lt;br&gt;-productPrice : int&lt;br&gt;-productStatus : bool&lt;br&gt;&lt;/span&gt;" style="text;strokeColor=none;fillColor=none;align=left;verticalAlign=top;spacingLeft=4;spacingRight=4;overflow=hidden;rotatable=0;points=[[0,0.5],[1,0.5]];portConstraint=eastwest;whiteSpace=wrap;html=1;" parent="xp9DndtR4B1kEyA0Q4Bi-39" vertex="1">
          <mxGeometry y="26" width="180" height="94" as="geometry" />
        </mxCell>
        <mxCell id="xp9DndtR4B1kEyA0Q4Bi-41" value="" style="line;strokeWidth=1;fillColor=none;align=left;verticalAlign=middle;spacingTop=-1;spacingLeft=3;spacingRight=3;rotatable=0;labelPosition=right;points=[];portConstraint=eastwest;strokeColor=inherit;" parent="xp9DndtR4B1kEyA0Q4Bi-39" vertex="1">
          <mxGeometry y="120" width="180" height="8" as="geometry" />
        </mxCell>
        <mxCell id="xp9DndtR4B1kEyA0Q4Bi-42" value="&lt;font style=&quot;font-size: 14px;&quot;&gt;+addproduct()&lt;br&gt;+updateproduct()&lt;br&gt;+deleteproduct()&lt;br&gt;+changestatus()&lt;br&gt;+buyproduct()&lt;br&gt;+productdetails()&lt;br&gt;&lt;/font&gt;" style="text;strokeColor=none;fillColor=none;align=left;verticalAlign=top;spacingLeft=4;spacingRight=4;overflow=hidden;rotatable=0;points=[[0,0.5],[1,0.5]];portConstraint=eastwest;whiteSpace=wrap;html=1;" parent="xp9DndtR4B1kEyA0Q4Bi-39" vertex="1">
          <mxGeometry y="128" width="180" height="112" as="geometry" />
        </mxCell>
        <mxCell id="xp9DndtR4B1kEyA0Q4Bi-43" value="&lt;span style=&quot;font-weight: normal;&quot;&gt;Category&lt;/span&gt;" style="swimlane;fontStyle=1;align=center;verticalAlign=top;childLayout=stackLayout;horizontal=1;startSize=26;horizontalStack=0;resizeParent=1;resizeParentMax=0;resizeLast=0;collapsible=1;marginBottom=0;whiteSpace=wrap;html=1;" parent="1" vertex="1">
          <mxGeometry x="480" y="706" width="180" height="160" as="geometry" />
        </mxCell>
        <mxCell id="xp9DndtR4B1kEyA0Q4Bi-44" value="&lt;span style=&quot;font-size: 14px;&quot;&gt;-categoryId : int&lt;br&gt;-category_name : string&lt;br&gt;&lt;/span&gt;" style="text;strokeColor=none;fillColor=none;align=left;verticalAlign=top;spacingLeft=4;spacingRight=4;overflow=hidden;rotatable=0;points=[[0,0.5],[1,0.5]];portConstraint=eastwest;whiteSpace=wrap;html=1;" parent="xp9DndtR4B1kEyA0Q4Bi-43" vertex="1">
          <mxGeometry y="26" width="180" height="44" as="geometry" />
        </mxCell>
        <mxCell id="xp9DndtR4B1kEyA0Q4Bi-45" value="" style="line;strokeWidth=1;fillColor=none;align=left;verticalAlign=middle;spacingTop=-1;spacingLeft=3;spacingRight=3;rotatable=0;labelPosition=right;points=[];portConstraint=eastwest;strokeColor=inherit;" parent="xp9DndtR4B1kEyA0Q4Bi-43" vertex="1">
          <mxGeometry y="70" width="180" height="8" as="geometry" />
        </mxCell>
        <mxCell id="xp9DndtR4B1kEyA0Q4Bi-46" value="&lt;font style=&quot;font-size: 14px;&quot;&gt;+addcategory()&lt;br&gt;+updatecategory()&lt;br&gt;+deletecategory()&lt;br&gt;&lt;/font&gt;" style="text;strokeColor=none;fillColor=none;align=left;verticalAlign=top;spacingLeft=4;spacingRight=4;overflow=hidden;rotatable=0;points=[[0,0.5],[1,0.5]];portConstraint=eastwest;whiteSpace=wrap;html=1;" parent="xp9DndtR4B1kEyA0Q4Bi-43" vertex="1">
          <mxGeometry y="78" width="180" height="82" as="geometry" />
        </mxCell>
        <mxCell id="xp9DndtR4B1kEyA0Q4Bi-47" value="&lt;span style=&quot;font-weight: normal;&quot;&gt;Cuppon&amp;nbsp;&lt;/span&gt;" style="swimlane;fontStyle=1;align=center;verticalAlign=top;childLayout=stackLayout;horizontal=1;startSize=26;horizontalStack=0;resizeParent=1;resizeParentMax=0;resizeLast=0;collapsible=1;marginBottom=0;whiteSpace=wrap;html=1;" parent="1" vertex="1">
          <mxGeometry x="599" y="538" width="180" height="140" as="geometry" />
        </mxCell>
        <mxCell id="xp9DndtR4B1kEyA0Q4Bi-48" value="&lt;span style=&quot;font-size: 14px;&quot;&gt;-cuppon_name: string&lt;br&gt;-cupponId : int&lt;br&gt;&lt;/span&gt;" style="text;strokeColor=none;fillColor=none;align=left;verticalAlign=top;spacingLeft=4;spacingRight=4;overflow=hidden;rotatable=0;points=[[0,0.5],[1,0.5]];portConstraint=eastwest;whiteSpace=wrap;html=1;" parent="xp9DndtR4B1kEyA0Q4Bi-47" vertex="1">
          <mxGeometry y="26" width="180" height="44" as="geometry" />
        </mxCell>
        <mxCell id="xp9DndtR4B1kEyA0Q4Bi-49" value="" style="line;strokeWidth=1;fillColor=none;align=left;verticalAlign=middle;spacingTop=-1;spacingLeft=3;spacingRight=3;rotatable=0;labelPosition=right;points=[];portConstraint=eastwest;strokeColor=inherit;" parent="xp9DndtR4B1kEyA0Q4Bi-47" vertex="1">
          <mxGeometry y="70" width="180" height="8" as="geometry" />
        </mxCell>
        <mxCell id="xp9DndtR4B1kEyA0Q4Bi-50" value="&lt;font style=&quot;font-size: 14px;&quot;&gt;+createcuppon()&lt;br&gt;+deletecuppon()&lt;br&gt;+updatecuppon&lt;br&gt;&lt;/font&gt;" style="text;strokeColor=none;fillColor=none;align=left;verticalAlign=top;spacingLeft=4;spacingRight=4;overflow=hidden;rotatable=0;points=[[0,0.5],[1,0.5]];portConstraint=eastwest;whiteSpace=wrap;html=1;" parent="xp9DndtR4B1kEyA0Q4Bi-47" vertex="1">
          <mxGeometry y="78" width="180" height="62" as="geometry" />
        </mxCell>
        <mxCell id="xp9DndtR4B1kEyA0Q4Bi-52" value="" style="endArrow=diamondThin;endFill=1;endSize=24;html=1;rounded=0;entryX=0;entryY=0.5;entryDx=0;entryDy=0;" parent="1" target="xp9DndtR4B1kEyA0Q4Bi-14" edge="1">
          <mxGeometry width="160" relative="1" as="geometry">
            <mxPoint x="280" y="520" as="sourcePoint" />
            <mxPoint x="390" y="500" as="targetPoint" />
            <Array as="points">
              <mxPoint x="280" y="383" />
            </Array>
          </mxGeometry>
        </mxCell>
        <mxCell id="xp9DndtR4B1kEyA0Q4Bi-53" value="&lt;font style=&quot;font-size: 14px;&quot;&gt;0&lt;/font&gt;" style="edgeLabel;html=1;align=center;verticalAlign=middle;resizable=0;points=[];" parent="xp9DndtR4B1kEyA0Q4Bi-52" vertex="1" connectable="0">
          <mxGeometry x="0.3476" relative="1" as="geometry">
            <mxPoint as="offset" />
          </mxGeometry>
        </mxCell>
        <mxCell id="xp9DndtR4B1kEyA0Q4Bi-54" value="&lt;font style=&quot;font-size: 14px;&quot;&gt;0...*&lt;/font&gt;" style="edgeLabel;html=1;align=center;verticalAlign=middle;resizable=0;points=[];" parent="xp9DndtR4B1kEyA0Q4Bi-52" vertex="1" connectable="0">
          <mxGeometry x="-0.8439" relative="1" as="geometry">
            <mxPoint as="offset" />
          </mxGeometry>
        </mxCell>
        <mxCell id="xp9DndtR4B1kEyA0Q4Bi-58" value="" style="endArrow=none;html=1;edgeStyle=orthogonalEdgeStyle;rounded=0;exitX=0.492;exitY=1.045;exitDx=0;exitDy=0;exitPerimeter=0;" parent="1" source="xp9DndtR4B1kEyA0Q4Bi-8" edge="1">
          <mxGeometry relative="1" as="geometry">
            <mxPoint x="50" y="599" as="sourcePoint" />
            <mxPoint x="210" y="599" as="targetPoint" />
            <Array as="points">
              <mxPoint x="124" y="599" />
            </Array>
          </mxGeometry>
        </mxCell>
        <mxCell id="xp9DndtR4B1kEyA0Q4Bi-62" value="" style="endArrow=diamondThin;endFill=1;endSize=24;html=1;rounded=0;exitX=1.004;exitY=0.591;exitDx=0;exitDy=0;entryX=0;entryY=0.5;entryDx=0;entryDy=0;exitPerimeter=0;" parent="1" source="xp9DndtR4B1kEyA0Q4Bi-40" target="xp9DndtR4B1kEyA0Q4Bi-10" edge="1">
          <mxGeometry width="160" relative="1" as="geometry">
            <mxPoint x="430" y="590" as="sourcePoint" />
            <mxPoint x="590" y="590" as="targetPoint" />
            <Array as="points">
              <mxPoint x="540" y="600" />
              <mxPoint x="540" y="500" />
              <mxPoint x="540" y="349" />
            </Array>
          </mxGeometry>
        </mxCell>
        <mxCell id="xp9DndtR4B1kEyA0Q4Bi-63" value="&lt;font style=&quot;font-size: 14px;&quot;&gt;0&lt;/font&gt;" style="edgeLabel;html=1;align=center;verticalAlign=middle;resizable=0;points=[];" parent="xp9DndtR4B1kEyA0Q4Bi-62" vertex="1" connectable="0">
          <mxGeometry x="0.8267" y="-2" relative="1" as="geometry">
            <mxPoint as="offset" />
          </mxGeometry>
        </mxCell>
        <mxCell id="xp9DndtR4B1kEyA0Q4Bi-64" value="&lt;font style=&quot;font-size: 14px;&quot;&gt;0...*&lt;/font&gt;" style="edgeLabel;html=1;align=center;verticalAlign=middle;resizable=0;points=[];" parent="xp9DndtR4B1kEyA0Q4Bi-62" vertex="1" connectable="0">
          <mxGeometry x="-0.8364" y="1" relative="1" as="geometry">
            <mxPoint x="-7" as="offset" />
          </mxGeometry>
        </mxCell>
        <mxCell id="xp9DndtR4B1kEyA0Q4Bi-66" value="" style="endArrow=diamondThin;endFill=1;endSize=24;html=1;rounded=0;exitX=0;exitY=0.5;exitDx=0;exitDy=0;" parent="1" source="xp9DndtR4B1kEyA0Q4Bi-48" edge="1">
          <mxGeometry width="160" relative="1" as="geometry">
            <mxPoint x="345" y="530" as="sourcePoint" />
            <mxPoint x="500" y="480" as="targetPoint" />
            <Array as="points">
              <mxPoint x="500" y="586" />
            </Array>
          </mxGeometry>
        </mxCell>
        <mxCell id="xp9DndtR4B1kEyA0Q4Bi-67" value="&lt;font style=&quot;font-size: 14px;&quot;&gt;0&lt;/font&gt;" style="edgeLabel;html=1;align=center;verticalAlign=middle;resizable=0;points=[];" parent="xp9DndtR4B1kEyA0Q4Bi-66" vertex="1" connectable="0">
          <mxGeometry x="0.6496" relative="1" as="geometry">
            <mxPoint as="offset" />
          </mxGeometry>
        </mxCell>
        <mxCell id="xp9DndtR4B1kEyA0Q4Bi-68" value="&lt;font style=&quot;font-size: 13px;&quot;&gt;0...*&lt;/font&gt;" style="edgeLabel;html=1;align=center;verticalAlign=middle;resizable=0;points=[];" parent="xp9DndtR4B1kEyA0Q4Bi-66" vertex="1" connectable="0">
          <mxGeometry x="-0.7912" y="-3" relative="1" as="geometry">
            <mxPoint x="-4" as="offset" />
          </mxGeometry>
        </mxCell>
        <mxCell id="xp9DndtR4B1kEyA0Q4Bi-69" value="" style="endArrow=diamondThin;endFill=1;endSize=24;html=1;rounded=0;exitX=0.011;exitY=0.664;exitDx=0;exitDy=0;exitPerimeter=0;" parent="1" source="xp9DndtR4B1kEyA0Q4Bi-44" edge="1">
          <mxGeometry width="160" relative="1" as="geometry">
            <mxPoint x="420" y="620" as="sourcePoint" />
            <mxPoint x="445" y="480" as="targetPoint" />
            <Array as="points">
              <mxPoint x="445" y="760" />
            </Array>
          </mxGeometry>
        </mxCell>
        <mxCell id="xp9DndtR4B1kEyA0Q4Bi-70" value="&lt;span style=&quot;font-size: 14px;&quot;&gt;0&lt;/span&gt;" style="edgeLabel;html=1;align=center;verticalAlign=middle;resizable=0;points=[];" parent="xp9DndtR4B1kEyA0Q4Bi-69" vertex="1" connectable="0">
          <mxGeometry x="0.6094" y="1" relative="1" as="geometry">
            <mxPoint as="offset" />
          </mxGeometry>
        </mxCell>
        <mxCell id="xp9DndtR4B1kEyA0Q4Bi-71" value="&lt;font style=&quot;font-size: 13px;&quot;&gt;0...*&lt;/font&gt;" style="edgeLabel;html=1;align=center;verticalAlign=middle;resizable=0;points=[];" parent="xp9DndtR4B1kEyA0Q4Bi-69" vertex="1" connectable="0">
          <mxGeometry x="-0.76" y="-1" relative="1" as="geometry">
            <mxPoint y="-18" as="offset" />
          </mxGeometry>
        </mxCell>
        <mxCell id="xp9DndtR4B1kEyA0Q4Bi-73" value="" style="endArrow=diamondThin;endFill=1;endSize=24;html=1;rounded=0;exitX=1;exitY=0.5;exitDx=0;exitDy=0;entryX=0.449;entryY=1.021;entryDx=0;entryDy=0;entryPerimeter=0;" parent="1" source="xp9DndtR4B1kEyA0Q4Bi-30" target="xp9DndtR4B1kEyA0Q4Bi-42" edge="1">
          <mxGeometry width="160" relative="1" as="geometry">
            <mxPoint x="230" y="860" as="sourcePoint" />
            <mxPoint x="390" y="860" as="targetPoint" />
            <Array as="points">
              <mxPoint x="290" y="828" />
            </Array>
          </mxGeometry>
        </mxCell>
        <mxCell id="xp9DndtR4B1kEyA0Q4Bi-74" value="&lt;font style=&quot;font-size: 14px;&quot;&gt;1...*&lt;/font&gt;" style="edgeLabel;html=1;align=center;verticalAlign=middle;resizable=0;points=[];" parent="xp9DndtR4B1kEyA0Q4Bi-73" vertex="1" connectable="0">
          <mxGeometry x="0.6834" relative="1" as="geometry">
            <mxPoint x="-1" y="10" as="offset" />
          </mxGeometry>
        </mxCell>
        <mxCell id="xp9DndtR4B1kEyA0Q4Bi-75" value="&lt;font style=&quot;font-size: 14px;&quot;&gt;1&lt;/font&gt;" style="edgeLabel;html=1;align=center;verticalAlign=middle;resizable=0;points=[];" parent="xp9DndtR4B1kEyA0Q4Bi-73" vertex="1" connectable="0">
          <mxGeometry x="-0.7883" y="-1" relative="1" as="geometry">
            <mxPoint as="offset" />
          </mxGeometry>
        </mxCell>
        <mxCell id="xp9DndtR4B1kEyA0Q4Bi-76" value="" style="endArrow=diamondThin;endFill=1;endSize=24;html=1;rounded=0;exitX=0.25;exitY=0;exitDx=0;exitDy=0;entryX=0.129;entryY=0.994;entryDx=0;entryDy=0;entryPerimeter=0;" parent="1" source="xp9DndtR4B1kEyA0Q4Bi-29" target="xp9DndtR4B1kEyA0Q4Bi-8" edge="1">
          <mxGeometry width="160" relative="1" as="geometry">
            <mxPoint x="40" y="680" as="sourcePoint" />
            <mxPoint x="200" y="680" as="targetPoint" />
          </mxGeometry>
        </mxCell>
        <mxCell id="xp9DndtR4B1kEyA0Q4Bi-77" value="&lt;font style=&quot;font-size: 14px;&quot;&gt;0&lt;/font&gt;" style="edgeLabel;html=1;align=center;verticalAlign=middle;resizable=0;points=[];" parent="xp9DndtR4B1kEyA0Q4Bi-76" vertex="1" connectable="0">
          <mxGeometry x="0.7562" y="2" relative="1" as="geometry">
            <mxPoint y="9" as="offset" />
          </mxGeometry>
        </mxCell>
        <mxCell id="xp9DndtR4B1kEyA0Q4Bi-78" value="&lt;font style=&quot;font-size: 14px;&quot;&gt;0...*&lt;/font&gt;" style="edgeLabel;html=1;align=center;verticalAlign=middle;resizable=0;points=[];" parent="xp9DndtR4B1kEyA0Q4Bi-76" vertex="1" connectable="0">
          <mxGeometry x="-0.8002" y="1" relative="1" as="geometry">
            <mxPoint as="offset" />
          </mxGeometry>
        </mxCell>
        <mxCell id="xp9DndtR4B1kEyA0Q4Bi-79" value="" style="endArrow=diamondThin;endFill=1;endSize=24;html=1;rounded=0;exitX=0.702;exitY=0.995;exitDx=0;exitDy=0;exitPerimeter=0;entryX=-0.002;entryY=0.668;entryDx=0;entryDy=0;entryPerimeter=0;" parent="1" source="xp9DndtR4B1kEyA0Q4Bi-42" target="xp9DndtR4B1kEyA0Q4Bi-46" edge="1">
          <mxGeometry width="160" relative="1" as="geometry">
            <mxPoint x="310" y="860" as="sourcePoint" />
            <mxPoint x="470" y="860" as="targetPoint" />
            <Array as="points">
              <mxPoint x="336" y="840" />
            </Array>
          </mxGeometry>
        </mxCell>
        <mxCell id="xp9DndtR4B1kEyA0Q4Bi-80" value="&lt;font style=&quot;font-size: 14px;&quot;&gt;1&lt;/font&gt;" style="edgeLabel;html=1;align=center;verticalAlign=middle;resizable=0;points=[];" parent="xp9DndtR4B1kEyA0Q4Bi-79" vertex="1" connectable="0">
          <mxGeometry x="0.3603" y="-1" relative="1" as="geometry">
            <mxPoint as="offset" />
          </mxGeometry>
        </mxCell>
        <mxCell id="xp9DndtR4B1kEyA0Q4Bi-81" value="&lt;font style=&quot;font-size: 14px;&quot;&gt;1...*&lt;/font&gt;" style="edgeLabel;html=1;align=center;verticalAlign=middle;resizable=0;points=[];" parent="xp9DndtR4B1kEyA0Q4Bi-79" vertex="1" connectable="0">
          <mxGeometry x="-0.7679" y="-2" relative="1" as="geometry">
            <mxPoint as="offset" />
          </mxGeometry>
        </mxCell>
        <mxCell id="RAUvFLpsxhaJ3LUqJ1NZ-1" value="&lt;span style=&quot;font-weight: normal;&quot;&gt;Payment Info&lt;/span&gt;" style="swimlane;fontStyle=1;align=center;verticalAlign=top;childLayout=stackLayout;horizontal=1;startSize=26;horizontalStack=0;resizeParent=1;resizeParentMax=0;resizeLast=0;collapsible=1;marginBottom=0;whiteSpace=wrap;html=1;" vertex="1" parent="1">
          <mxGeometry x="480" y="920" width="170" height="180" as="geometry" />
        </mxCell>
        <mxCell id="RAUvFLpsxhaJ3LUqJ1NZ-2" value="&lt;span style=&quot;font-size: 14px;&quot;&gt;-paymentId : int&lt;br&gt;-orderId: int&lt;br&gt;-totalpaid: int&lt;br&gt;-paid:boolean&lt;br&gt;&lt;/span&gt;" style="text;strokeColor=none;fillColor=none;align=left;verticalAlign=top;spacingLeft=4;spacingRight=4;overflow=hidden;rotatable=0;points=[[0,0.5],[1,0.5]];portConstraint=eastwest;whiteSpace=wrap;html=1;" vertex="1" parent="RAUvFLpsxhaJ3LUqJ1NZ-1">
          <mxGeometry y="26" width="170" height="84" as="geometry" />
        </mxCell>
        <mxCell id="RAUvFLpsxhaJ3LUqJ1NZ-3" value="" style="line;strokeWidth=1;fillColor=none;align=left;verticalAlign=middle;spacingTop=-1;spacingLeft=3;spacingRight=3;rotatable=0;labelPosition=right;points=[];portConstraint=eastwest;strokeColor=inherit;" vertex="1" parent="RAUvFLpsxhaJ3LUqJ1NZ-1">
          <mxGeometry y="110" width="170" height="8" as="geometry" />
        </mxCell>
        <mxCell id="RAUvFLpsxhaJ3LUqJ1NZ-4" value="&lt;font style=&quot;font-size: 14px;&quot;&gt;+confirm_transiction()&lt;br&gt;+payment_details()&lt;br&gt;+applyCuppon()&lt;br&gt;&lt;/font&gt;" style="text;strokeColor=none;fillColor=none;align=left;verticalAlign=top;spacingLeft=4;spacingRight=4;overflow=hidden;rotatable=0;points=[[0,0.5],[1,0.5]];portConstraint=eastwest;whiteSpace=wrap;html=1;" vertex="1" parent="RAUvFLpsxhaJ3LUqJ1NZ-1">
          <mxGeometry y="118" width="170" height="62" as="geometry" />
        </mxCell>
        <mxCell id="RAUvFLpsxhaJ3LUqJ1NZ-6" value="&lt;span style=&quot;font-weight: normal;&quot;&gt;Shiping Info&lt;/span&gt;" style="swimlane;fontStyle=1;align=center;verticalAlign=top;childLayout=stackLayout;horizontal=1;startSize=26;horizontalStack=0;resizeParent=1;resizeParentMax=0;resizeLast=0;collapsible=1;marginBottom=0;whiteSpace=wrap;html=1;" vertex="1" parent="1">
          <mxGeometry x="21" y="966" width="170" height="170" as="geometry" />
        </mxCell>
        <mxCell id="RAUvFLpsxhaJ3LUqJ1NZ-7" value="&lt;span style=&quot;font-size: 14px;&quot;&gt;-shipingId : int&lt;br&gt;-shipingCoast : int&lt;br&gt;-shipingAddress : string&lt;br&gt;&lt;/span&gt;" style="text;strokeColor=none;fillColor=none;align=left;verticalAlign=top;spacingLeft=4;spacingRight=4;overflow=hidden;rotatable=0;points=[[0,0.5],[1,0.5]];portConstraint=eastwest;whiteSpace=wrap;html=1;" vertex="1" parent="RAUvFLpsxhaJ3LUqJ1NZ-6">
          <mxGeometry y="26" width="170" height="84" as="geometry" />
        </mxCell>
        <mxCell id="RAUvFLpsxhaJ3LUqJ1NZ-8" value="" style="line;strokeWidth=1;fillColor=none;align=left;verticalAlign=middle;spacingTop=-1;spacingLeft=3;spacingRight=3;rotatable=0;labelPosition=right;points=[];portConstraint=eastwest;strokeColor=inherit;" vertex="1" parent="RAUvFLpsxhaJ3LUqJ1NZ-6">
          <mxGeometry y="110" width="170" height="8" as="geometry" />
        </mxCell>
        <mxCell id="RAUvFLpsxhaJ3LUqJ1NZ-9" value="&lt;font style=&quot;font-size: 14px;&quot;&gt;+confirm_transiction()&lt;br&gt;+payment_details()&lt;br&gt;&lt;/font&gt;" style="text;strokeColor=none;fillColor=none;align=left;verticalAlign=top;spacingLeft=4;spacingRight=4;overflow=hidden;rotatable=0;points=[[0,0.5],[1,0.5]];portConstraint=eastwest;whiteSpace=wrap;html=1;" vertex="1" parent="RAUvFLpsxhaJ3LUqJ1NZ-6">
          <mxGeometry y="118" width="170" height="52" as="geometry" />
        </mxCell>
        <mxCell id="RAUvFLpsxhaJ3LUqJ1NZ-10" value="" style="endArrow=diamondThin;endFill=0;endSize=24;html=1;rounded=0;exitX=1;exitY=0.5;exitDx=0;exitDy=0;entryX=0.004;entryY=0.221;entryDx=0;entryDy=0;entryPerimeter=0;shadow=0;" edge="1" parent="1" target="xp9DndtR4B1kEyA0Q4Bi-42">
          <mxGeometry width="160" relative="1" as="geometry">
            <mxPoint x="21" y="678" as="sourcePoint" />
            <mxPoint x="210" y="672.9680000000001" as="targetPoint" />
          </mxGeometry>
        </mxCell>
        <mxCell id="RAUvFLpsxhaJ3LUqJ1NZ-16" value="&lt;font style=&quot;font-size: 14px;&quot;&gt;1&lt;/font&gt;" style="edgeLabel;html=1;align=center;verticalAlign=middle;resizable=0;points=[];" vertex="1" connectable="0" parent="RAUvFLpsxhaJ3LUqJ1NZ-10">
          <mxGeometry x="0.613" y="1" relative="1" as="geometry">
            <mxPoint as="offset" />
          </mxGeometry>
        </mxCell>
        <mxCell id="RAUvFLpsxhaJ3LUqJ1NZ-17" value="&lt;font style=&quot;font-size: 14px;&quot;&gt;1...*&lt;/font&gt;" style="edgeLabel;html=1;align=center;verticalAlign=middle;resizable=0;points=[];" vertex="1" connectable="0" parent="RAUvFLpsxhaJ3LUqJ1NZ-10">
          <mxGeometry x="-0.8101" y="1" relative="1" as="geometry">
            <mxPoint as="offset" />
          </mxGeometry>
        </mxCell>
        <mxCell id="RAUvFLpsxhaJ3LUqJ1NZ-19" value="" style="endArrow=diamondThin;endFill=1;endSize=24;html=1;rounded=0;entryX=0.989;entryY=0.238;entryDx=0;entryDy=0;exitX=0.5;exitY=0;exitDx=0;exitDy=0;entryPerimeter=0;" edge="1" parent="1" source="RAUvFLpsxhaJ3LUqJ1NZ-1" target="xp9DndtR4B1kEyA0Q4Bi-32">
          <mxGeometry width="160" relative="1" as="geometry">
            <mxPoint x="250" y="970" as="sourcePoint" />
            <mxPoint x="410" y="970" as="targetPoint" />
            <Array as="points">
              <mxPoint x="565" y="900" />
            </Array>
          </mxGeometry>
        </mxCell>
        <mxCell id="RAUvFLpsxhaJ3LUqJ1NZ-20" value="&lt;font style=&quot;font-size: 14px;&quot;&gt;1&lt;/font&gt;" style="edgeLabel;html=1;align=center;verticalAlign=middle;resizable=0;points=[];" vertex="1" connectable="0" parent="RAUvFLpsxhaJ3LUqJ1NZ-19">
          <mxGeometry x="0.7733" y="2" relative="1" as="geometry">
            <mxPoint as="offset" />
          </mxGeometry>
        </mxCell>
        <mxCell id="RAUvFLpsxhaJ3LUqJ1NZ-21" value="&lt;font style=&quot;font-size: 14px;&quot;&gt;1&lt;/font&gt;" style="edgeLabel;html=1;align=center;verticalAlign=middle;resizable=0;points=[];" vertex="1" connectable="0" parent="RAUvFLpsxhaJ3LUqJ1NZ-19">
          <mxGeometry x="-0.7626" y="2" relative="1" as="geometry">
            <mxPoint as="offset" />
          </mxGeometry>
        </mxCell>
        <mxCell id="RAUvFLpsxhaJ3LUqJ1NZ-22" value="" style="endArrow=diamondThin;endFill=1;endSize=24;html=1;rounded=0;entryX=0;entryY=0.5;entryDx=0;entryDy=0;exitX=0;exitY=0.5;exitDx=0;exitDy=0;edgeStyle=elbowEdgeStyle;elbow=vertical;" edge="1" parent="1" source="RAUvFLpsxhaJ3LUqJ1NZ-7" target="xp9DndtR4B1kEyA0Q4Bi-30">
          <mxGeometry width="160" relative="1" as="geometry">
            <mxPoint x="-150" y="1030" as="sourcePoint" />
            <mxPoint x="10" y="1030" as="targetPoint" />
            <Array as="points">
              <mxPoint x="-30" y="930" />
            </Array>
          </mxGeometry>
        </mxCell>
        <mxCell id="RAUvFLpsxhaJ3LUqJ1NZ-26" value="&lt;font style=&quot;font-size: 14px;&quot;&gt;1&lt;/font&gt;" style="edgeLabel;html=1;align=center;verticalAlign=middle;resizable=0;points=[];" vertex="1" connectable="0" parent="RAUvFLpsxhaJ3LUqJ1NZ-22">
          <mxGeometry x="0.5117" y="2" relative="1" as="geometry">
            <mxPoint as="offset" />
          </mxGeometry>
        </mxCell>
        <mxCell id="RAUvFLpsxhaJ3LUqJ1NZ-27" value="&lt;font style=&quot;font-size: 14px;&quot;&gt;1&lt;/font&gt;" style="edgeLabel;html=1;align=center;verticalAlign=middle;resizable=0;points=[];" vertex="1" connectable="0" parent="RAUvFLpsxhaJ3LUqJ1NZ-22">
          <mxGeometry x="-0.7987" y="-1" relative="1" as="geometry">
            <mxPoint as="offset" />
          </mxGeometry>
        </mxCell>
        <mxCell id="RAUvFLpsxhaJ3LUqJ1NZ-23" value="" style="endArrow=diamondThin;endFill=0;endSize=24;html=1;rounded=0;entryX=1;entryY=0.5;entryDx=0;entryDy=0;edgeStyle=elbowEdgeStyle;elbow=vertical;" edge="1" parent="1">
          <mxGeometry width="160" relative="1" as="geometry">
            <mxPoint x="650" y="1041" as="sourcePoint" />
            <mxPoint x="725" y="678" as="targetPoint" />
            <Array as="points">
              <mxPoint x="676" y="1041" />
            </Array>
          </mxGeometry>
        </mxCell>
        <mxCell id="RAUvFLpsxhaJ3LUqJ1NZ-24" value="&lt;font style=&quot;font-size: 14px;&quot;&gt;1&lt;/font&gt;" style="edgeLabel;html=1;align=center;verticalAlign=middle;resizable=0;points=[];" vertex="1" connectable="0" parent="RAUvFLpsxhaJ3LUqJ1NZ-23">
          <mxGeometry x="0.8292" y="-1" relative="1" as="geometry">
            <mxPoint as="offset" />
          </mxGeometry>
        </mxCell>
        <mxCell id="RAUvFLpsxhaJ3LUqJ1NZ-25" value="&lt;font style=&quot;font-size: 14px;&quot;&gt;1&lt;/font&gt;" style="edgeLabel;html=1;align=center;verticalAlign=middle;resizable=0;points=[];" vertex="1" connectable="0" parent="RAUvFLpsxhaJ3LUqJ1NZ-23">
          <mxGeometry x="-0.8447" y="-1" relative="1" as="geometry">
            <mxPoint as="offset" />
          </mxGeometry>
        </mxCell>
        <mxCell id="RAUvFLpsxhaJ3LUqJ1NZ-28" value="" style="swimlane;startSize=0;" vertex="1" parent="1">
          <mxGeometry x="-210" y="50" width="1040" height="1160" as="geometry" />
        </mxCell>
      </root>
    </mxGraphModel>
  </diagram>
</mxfile>
